<svg xmlns="http://www.w3.org/2000/svg" width="980" height="420" viewBox="0 0 980 420">
  <rect width="980" height="420" fill="#000000"/>
  <rect x="54" y="48" width="872" height="324" rx="18" fill="#11131F" stroke="#2B2E3B" stroke-width="3"/>
  <circle cx="92" cy="86" r="11" fill="#04E2FF"/>
  <circle cx="126" cy="86" r="11" fill="#04E2FF" opacity=".8"/>
  <circle cx="160" cy="86" r="11" fill="#04E2FF" opacity=".55"/>
  <rect x="104" y="138" width="330" height="42" fill="#04E2FF"/>
  <rect x="104" y="210" width="520" height="18" fill="#ffffff" opacity=".88"/>
  <rect x="104" y="246" width="460" height="18" fill="#ffffff" opacity=".68"/>
  <rect x="104" y="282" width="380" height="18" fill="#ffffff" opacity=".50"/>
  <rect x="104" y="326" width="160" height="38" fill="#04E2FF"/>
  <g transform="translate(672 122)">
    <rect x="0" y="0" width="184" height="134" rx="10" fill="#1F212B" stroke="#2FE85B" stroke-width="5"/>
    <rect x="26" y="30" width="132" height="14" fill="#2FE85B"/>
    <rect x="26" y="60" width="104" height="10" fill="#ffffff" opacity=".75"/>
    <rect x="26" y="84" width="82" height="10" fill="#ffffff" opacity=".55"/>
    <path d="M56 178h72M92 134v44" stroke="#2FE85B" stroke-width="6" stroke-linecap="round"/>
  </g>
  <text x="104" y="180" font-family="Segoe UI, Arial, sans-serif" font-size="38" font-weight="800" fill="#000000">Cursos EduTech</text>
</svg>